<?xml version="1.0" encoding="UTF-8" standalone="no"?>
<!DOCTYPE svg PUBLIC "-//W3C//DTD SVG 1.1//EN"
 "http://www.w3.org/Graphics/SVG/1.1/DTD/svg11.dtd">
<!-- Generated by graphviz version 2.38.0 (20140413.2041)
 -->
<!-- Title: controllers_diagram Pages: 1 -->
<svg width="466pt" height="582pt"
 viewBox="0.00 0.00 466.00 582.00" xmlns="http://www.w3.org/2000/svg" xmlns:xlink="http://www.w3.org/1999/xlink">
<g id="graph0" class="graph" transform="scale(1 1) rotate(0) translate(184 362)">
<title>controllers_diagram</title>
<polygon fill="none" stroke="none" points="-184,220 -184,-362 282,-362 282,220 -184,220"/>
<!-- _diagram_info -->
<g id="node1" class="node"><title>_diagram_info</title>
<text text-anchor="start" x="8" y="152.4" font-family="Times,serif" font-size="13.00">Controllers diagram</text>
<text text-anchor="start" x="8" y="166.4" font-family="Times,serif" font-size="13.00">Date: Mar 11 2017 &#45; 17:25</text>
<text text-anchor="start" x="8" y="180.4" font-family="Times,serif" font-size="13.00">Migration version: 20170311202042</text>
<text text-anchor="start" x="8" y="194.4" font-family="Times,serif" font-size="13.00">Generated by RailRoady 1.5.2</text>
<text text-anchor="start" x="8" y="208.4" font-family="Times,serif" font-size="13.00">http://railroady.prestonlee.com</text>
</g>
<!-- ApplicationController -->
<g id="node2" class="node"><title>ApplicationController</title>
<path fill="none" stroke="black" d="M-168,-181C-168,-181 -56,-181 -56,-181 -50,-181 -44,-187 -44,-193 -44,-193 -44,-263 -44,-263 -44,-269 -50,-275 -56,-275 -56,-275 -168,-275 -168,-275 -174,-275 -180,-269 -180,-263 -180,-263 -180,-193 -180,-193 -180,-187 -174,-181 -168,-181"/>
<text text-anchor="middle" x="-112" y="-259.8" font-family="Times,serif" font-size="14.00">ApplicationController</text>
<polyline fill="none" stroke="black" points="-180,-252 -44,-252 "/>
<polyline fill="none" stroke="black" points="-180,-228 -44,-228 "/>
<polyline fill="none" stroke="black" points="-180,-204 -44,-204 "/>
<text text-anchor="start" x="-172" y="-188.8" font-family="Times,serif" font-size="14.00">_layout</text>
</g>
<!-- PhasesController -->
<g id="node3" class="node"><title>PhasesController</title>
<path fill="none" stroke="black" d="M12.5,-144.5C12.5,-144.5 97.5,-144.5 97.5,-144.5 103.5,-144.5 109.5,-150.5 109.5,-156.5 109.5,-156.5 109.5,-345.5 109.5,-345.5 109.5,-351.5 103.5,-357.5 97.5,-357.5 97.5,-357.5 12.5,-357.5 12.5,-357.5 6.5,-357.5 0.5,-351.5 0.5,-345.5 0.5,-345.5 0.5,-156.5 0.5,-156.5 0.5,-150.5 6.5,-144.5 12.5,-144.5"/>
<text text-anchor="middle" x="55" y="-342.3" font-family="Times,serif" font-size="14.00">PhasesController</text>
<polyline fill="none" stroke="black" points="0.5,-334.5 109.5,-334.5 "/>
<text text-anchor="start" x="8.5" y="-319.3" font-family="Times,serif" font-size="14.00">create</text>
<text text-anchor="start" x="8.5" y="-304.3" font-family="Times,serif" font-size="14.00">destroy</text>
<text text-anchor="start" x="8.5" y="-289.3" font-family="Times,serif" font-size="14.00">edit</text>
<text text-anchor="start" x="8.5" y="-274.3" font-family="Times,serif" font-size="14.00">index</text>
<text text-anchor="start" x="8.5" y="-259.3" font-family="Times,serif" font-size="14.00">new</text>
<text text-anchor="start" x="8.5" y="-244.3" font-family="Times,serif" font-size="14.00">show</text>
<text text-anchor="start" x="8.5" y="-229.3" font-family="Times,serif" font-size="14.00">update</text>
<polyline fill="none" stroke="black" points="0.5,-221.5 109.5,-221.5 "/>
<polyline fill="none" stroke="black" points="0.5,-197.5 109.5,-197.5 "/>
<text text-anchor="start" x="8.5" y="-182.3" font-family="Times,serif" font-size="14.00">_layout</text>
<text text-anchor="start" x="8.5" y="-167.3" font-family="Times,serif" font-size="14.00">phase_params</text>
<text text-anchor="start" x="8.5" y="-152.3" font-family="Times,serif" font-size="14.00">set_phase</text>
</g>
<!-- DepartmentsController -->
<g id="node4" class="node"><title>DepartmentsController</title>
<path fill="none" stroke="black" d="M-60,107.5C-60,107.5 58,107.5 58,107.5 64,107.5 70,101.5 70,95.5 70,95.5 70,-93.5 70,-93.5 70,-99.5 64,-105.5 58,-105.5 58,-105.5 -60,-105.5 -60,-105.5 -66,-105.5 -72,-99.5 -72,-93.5 -72,-93.5 -72,95.5 -72,95.5 -72,101.5 -66,107.5 -60,107.5"/>
<text text-anchor="middle" x="-1" y="-90.3" font-family="Times,serif" font-size="14.00">DepartmentsController</text>
<polyline fill="none" stroke="black" points="-72,-82.5 70,-82.5 "/>
<text text-anchor="start" x="-64" y="-67.3" font-family="Times,serif" font-size="14.00">create</text>
<text text-anchor="start" x="-64" y="-52.3" font-family="Times,serif" font-size="14.00">destroy</text>
<text text-anchor="start" x="-64" y="-37.3" font-family="Times,serif" font-size="14.00">edit</text>
<text text-anchor="start" x="-64" y="-22.3" font-family="Times,serif" font-size="14.00">index</text>
<text text-anchor="start" x="-64" y="-7.3" font-family="Times,serif" font-size="14.00">new</text>
<text text-anchor="start" x="-64" y="7.7" font-family="Times,serif" font-size="14.00">show</text>
<text text-anchor="start" x="-64" y="22.7" font-family="Times,serif" font-size="14.00">update</text>
<polyline fill="none" stroke="black" points="-72,30.5 70,30.5 "/>
<polyline fill="none" stroke="black" points="-72,54.5 70,54.5 "/>
<text text-anchor="start" x="-64" y="69.7" font-family="Times,serif" font-size="14.00">_layout</text>
<text text-anchor="start" x="-64" y="84.7" font-family="Times,serif" font-size="14.00">department_params</text>
<text text-anchor="start" x="-64" y="99.7" font-family="Times,serif" font-size="14.00">set_department</text>
</g>
<!-- SummariesController -->
<g id="node5" class="node"><title>SummariesController</title>
<path fill="none" stroke="black" d="M120,107.5C120,107.5 230,107.5 230,107.5 236,107.5 242,101.5 242,95.5 242,95.5 242,-93.5 242,-93.5 242,-99.5 236,-105.5 230,-105.5 230,-105.5 120,-105.5 120,-105.5 114,-105.5 108,-99.5 108,-93.5 108,-93.5 108,95.5 108,95.5 108,101.5 114,107.5 120,107.5"/>
<text text-anchor="middle" x="175" y="-90.3" font-family="Times,serif" font-size="14.00">SummariesController</text>
<polyline fill="none" stroke="black" points="108,-82.5 242,-82.5 "/>
<text text-anchor="start" x="116" y="-67.3" font-family="Times,serif" font-size="14.00">create</text>
<text text-anchor="start" x="116" y="-52.3" font-family="Times,serif" font-size="14.00">destroy</text>
<text text-anchor="start" x="116" y="-37.3" font-family="Times,serif" font-size="14.00">edit</text>
<text text-anchor="start" x="116" y="-22.3" font-family="Times,serif" font-size="14.00">index</text>
<text text-anchor="start" x="116" y="-7.3" font-family="Times,serif" font-size="14.00">new</text>
<text text-anchor="start" x="116" y="7.7" font-family="Times,serif" font-size="14.00">show</text>
<text text-anchor="start" x="116" y="22.7" font-family="Times,serif" font-size="14.00">update</text>
<polyline fill="none" stroke="black" points="108,30.5 242,30.5 "/>
<polyline fill="none" stroke="black" points="108,54.5 242,54.5 "/>
<text text-anchor="start" x="116" y="69.7" font-family="Times,serif" font-size="14.00">_layout</text>
<text text-anchor="start" x="116" y="84.7" font-family="Times,serif" font-size="14.00">set_summary</text>
<text text-anchor="start" x="116" y="99.7" font-family="Times,serif" font-size="14.00">summary_params</text>
</g>
<!-- DocumentsController -->
<g id="node6" class="node"><title>DocumentsController</title>
<path fill="none" stroke="black" d="M156,-144.5C156,-144.5 266,-144.5 266,-144.5 272,-144.5 278,-150.5 278,-156.5 278,-156.5 278,-345.5 278,-345.5 278,-351.5 272,-357.5 266,-357.5 266,-357.5 156,-357.5 156,-357.5 150,-357.5 144,-351.5 144,-345.5 144,-345.5 144,-156.5 144,-156.5 144,-150.5 150,-144.5 156,-144.5"/>
<text text-anchor="middle" x="211" y="-342.3" font-family="Times,serif" font-size="14.00">DocumentsController</text>
<polyline fill="none" stroke="black" points="144,-334.5 278,-334.5 "/>
<text text-anchor="start" x="152" y="-319.3" font-family="Times,serif" font-size="14.00">create</text>
<text text-anchor="start" x="152" y="-304.3" font-family="Times,serif" font-size="14.00">destroy</text>
<text text-anchor="start" x="152" y="-289.3" font-family="Times,serif" font-size="14.00">edit</text>
<text text-anchor="start" x="152" y="-274.3" font-family="Times,serif" font-size="14.00">index</text>
<text text-anchor="start" x="152" y="-259.3" font-family="Times,serif" font-size="14.00">new</text>
<text text-anchor="start" x="152" y="-244.3" font-family="Times,serif" font-size="14.00">show</text>
<text text-anchor="start" x="152" y="-229.3" font-family="Times,serif" font-size="14.00">update</text>
<polyline fill="none" stroke="black" points="144,-221.5 278,-221.5 "/>
<polyline fill="none" stroke="black" points="144,-197.5 278,-197.5 "/>
<text text-anchor="start" x="152" y="-182.3" font-family="Times,serif" font-size="14.00">_layout</text>
<text text-anchor="start" x="152" y="-167.3" font-family="Times,serif" font-size="14.00">document_params</text>
<text text-anchor="start" x="152" y="-152.3" font-family="Times,serif" font-size="14.00">set_document</text>
</g>
</g>
</svg>
