<?xml version="1.0" encoding="UTF-8" standalone="no"?>
<!DOCTYPE svg PUBLIC "-//W3C//DTD SVG 1.1//EN"
 "http://www.w3.org/Graphics/SVG/1.1/DTD/svg11.dtd">
<!-- Generated by graphviz version 2.38.0 (20140413.2041)
 -->
<!-- Title: models_diagram Pages: 1 -->
<svg width="622pt" height="302pt"
 viewBox="0.00 0.00 622.10 302.00" xmlns="http://www.w3.org/2000/svg" xmlns:xlink="http://www.w3.org/1999/xlink">
<g id="graph0" class="graph" transform="scale(1 1) rotate(0) translate(4 298)">
<title>models_diagram</title>
<polygon fill="none" stroke="none" points="-4,4 -4,-298 618.096,-298 618.096,4 -4,4"/>
<!-- _diagram_info -->
<g id="node1" class="node"><title>_diagram_info</title>
<text text-anchor="start" x="8" y="-279.6" font-family="Times,serif" font-size="13.00">Models diagram</text>
<text text-anchor="start" x="8" y="-265.6" font-family="Times,serif" font-size="13.00">Date: Mar 11 2017 &#45; 17:25</text>
<text text-anchor="start" x="8" y="-251.6" font-family="Times,serif" font-size="13.00">Migration version: 20170311202042</text>
<text text-anchor="start" x="8" y="-237.6" font-family="Times,serif" font-size="13.00">Generated by RailRoady 1.5.2</text>
<text text-anchor="start" x="8" y="-223.6" font-family="Times,serif" font-size="13.00">http://railroady.prestonlee.com</text>
</g>
<!-- Summary -->
<g id="node2" class="node"><title>Summary</title>
<ellipse fill="none" stroke="black" cx="410" cy="-162" rx="46.2923" ry="18"/>
<text text-anchor="middle" x="410" y="-158.3" font-family="Times,serif" font-size="14.00">Summary</text>
</g>
<!-- User -->
<g id="node7" class="node"><title>User</title>
<ellipse fill="none" stroke="black" cx="320" cy="-90" rx="27.0966" ry="18"/>
<text text-anchor="middle" x="320" y="-86.3" font-family="Times,serif" font-size="14.00">User</text>
</g>
<!-- Summary&#45;&gt;User -->
<g id="edge3" class="edge"><title>Summary&#45;&gt;User</title>
<path fill="none" stroke="#bb0c59" d="M381.737,-139.018C370.004,-129.892 356.5,-119.389 345.12,-110.538"/>
<polygon fill="#bb0c59" stroke="#bb0c59" points="382.133,-139.325 387.263,-149.017 386.079,-142.395 390.026,-145.465 390.026,-145.465 390.026,-145.465 386.079,-142.395 392.789,-141.913 382.133,-139.325 382.133,-139.325"/>
<polygon fill="#bb0c59" stroke="#bb0c59" points="344.789,-110.28 339.658,-100.589 340.842,-107.211 336.895,-104.141 336.895,-104.141 336.895,-104.141 340.842,-107.211 334.133,-107.693 344.789,-110.28 344.789,-110.28"/>
</g>
<!-- Phase -->
<g id="node8" class="node"><title>Phase</title>
<ellipse fill="none" stroke="black" cx="450" cy="-90" rx="31.3957" ry="18"/>
<text text-anchor="middle" x="450" y="-86.3" font-family="Times,serif" font-size="14.00">Phase</text>
</g>
<!-- Summary&#45;&gt;Phase -->
<g id="edge1" class="edge"><title>Summary&#45;&gt;Phase</title>
<path fill="none" stroke="#1e0f33" d="M423.777,-136.889C427.614,-130.175 431.79,-122.867 435.658,-116.098"/>
<ellipse fill="none" stroke="#1e0f33" cx="421.667" cy="-140.582" rx="4.00002" ry="4.00002"/>
<polygon fill="#1e0f33" stroke="#1e0f33" points="435.72,-115.989 444.589,-109.54 438.201,-111.648 440.682,-107.307 440.682,-107.307 440.682,-107.307 438.201,-111.648 436.775,-105.074 435.72,-115.989 435.72,-115.989"/>
</g>
<!-- SummaryUser -->
<g id="node9" class="node"><title>SummaryUser</title>
<ellipse fill="none" stroke="black" cx="320" cy="-18" rx="62.2891" ry="18"/>
<text text-anchor="middle" x="320" y="-14.3" font-family="Times,serif" font-size="14.00">SummaryUser</text>
</g>
<!-- Summary&#45;&gt;SummaryUser -->
<g id="edge2" class="edge"><title>Summary&#45;&gt;SummaryUser</title>
<path fill="none" stroke="#58b3ea" d="M395.805,-136.854C385.101,-118.834 369.932,-93.6874 356,-72 350.138,-62.8753 343.52,-53.0132 337.571,-44.299"/>
<ellipse fill="none" stroke="#58b3ea" cx="398.064" cy="-140.668" rx="4.00002" ry="4.00002"/>
<polygon fill="#58b3ea" stroke="#58b3ea" points="337.559,-44.281 335.608,-33.49 334.728,-40.1591 331.898,-36.0372 331.898,-36.0372 331.898,-36.0372 334.728,-40.1591 328.189,-38.5844 337.559,-44.281 337.559,-44.281"/>
</g>
<!-- Department -->
<g id="node3" class="node"><title>Department</title>
<ellipse fill="none" stroke="black" cx="293" cy="-162" rx="52.7911" ry="18"/>
<text text-anchor="middle" x="293" y="-158.3" font-family="Times,serif" font-size="14.00">Department</text>
</g>
<!-- Department&#45;&gt;User -->
<g id="edge4" class="edge"><title>Department&#45;&gt;User</title>
<path fill="none" stroke="#9d7a3e" d="M302.477,-136.431C304.875,-130.214 307.459,-123.514 309.887,-117.22"/>
<ellipse fill="none" stroke="#9d7a3e" cx="300.975" cy="-140.323" rx="4.00001" ry="4.00001"/>
<polygon fill="#9d7a3e" stroke="#9d7a3e" points="309.925,-117.119 317.723,-109.408 311.725,-112.454 313.524,-107.789 313.524,-107.789 313.524,-107.789 311.725,-112.454 309.326,-106.17 309.925,-117.119 309.925,-117.119"/>
</g>
<!-- ApplicationRecord -->
<g id="node4" class="node"><title>ApplicationRecord</title>
<ellipse fill="none" stroke="black" cx="449" cy="-255" rx="77.1866" ry="18"/>
<text text-anchor="middle" x="449" y="-251.3" font-family="Times,serif" font-size="14.00">ApplicationRecord</text>
</g>
<!-- TimeLimit -->
<g id="node5" class="node"><title>TimeLimit</title>
<ellipse fill="none" stroke="black" cx="450" cy="-18" rx="50.0912" ry="18"/>
<text text-anchor="middle" x="450" y="-14.3" font-family="Times,serif" font-size="14.00">TimeLimit</text>
</g>
<!-- Document -->
<g id="node6" class="node"><title>Document</title>
<ellipse fill="none" stroke="black" cx="566" cy="-18" rx="48.1917" ry="18"/>
<text text-anchor="middle" x="566" y="-14.3" font-family="Times,serif" font-size="14.00">Document</text>
</g>
<!-- User&#45;&gt;SummaryUser -->
<g id="edge5" class="edge"><title>User&#45;&gt;SummaryUser</title>
<path fill="none" stroke="#bf6467" d="M320,-63.6398C320,-58.0629 320,-52.1319 320,-46.4761"/>
<ellipse fill="none" stroke="#bf6467" cx="320" cy="-67.6966" rx="4" ry="4"/>
<polygon fill="#bf6467" stroke="#bf6467" points="320,-46.1043 324.5,-36.1043 320,-41.1043 320,-36.1043 320,-36.1043 320,-36.1043 320,-41.1043 315.5,-36.1044 320,-46.1043 320,-46.1043"/>
</g>
<!-- Phase&#45;&gt;TimeLimit -->
<g id="edge7" class="edge"><title>Phase&#45;&gt;TimeLimit</title>
<path fill="none" stroke="#b48a15" d="M450,-63.6398C450,-58.0629 450,-52.1319 450,-46.4761"/>
<ellipse fill="none" stroke="#b48a15" cx="450" cy="-67.6966" rx="4" ry="4"/>
<polygon fill="#b48a15" stroke="#b48a15" points="450,-46.1043 454.5,-36.1043 450,-41.1043 450,-36.1043 450,-36.1043 450,-36.1043 450,-41.1043 445.5,-36.1044 450,-46.1043 450,-46.1043"/>
</g>
<!-- Phase&#45;&gt;Document -->
<g id="edge6" class="edge"><title>Phase&#45;&gt;Document</title>
<path fill="none" stroke="#282ce5" d="M477.622,-72.3315C494.262,-62.2904 515.548,-49.445 533.061,-38.877"/>
<ellipse fill="none" stroke="#282ce5" cx="474.163" cy="-74.4187" rx="4.00002" ry="4.00002"/>
<polygon fill="#282ce5" stroke="#282ce5" points="533.269,-38.7518 544.155,-37.4379 537.549,-36.1684 541.83,-33.5851 541.83,-33.5851 541.83,-33.5851 537.549,-36.1684 539.505,-29.7322 533.269,-38.7518 533.269,-38.7518"/>
</g>
<!-- Establishment -->
<g id="node10" class="node"><title>Establishment</title>
<ellipse fill="none" stroke="black" cx="293" cy="-255" rx="61.1893" ry="18"/>
<text text-anchor="middle" x="293" y="-251.3" font-family="Times,serif" font-size="14.00">Establishment</text>
</g>
<!-- Establishment&#45;&gt;Department -->
<g id="edge8" class="edge"><title>Establishment&#45;&gt;Department</title>
<path fill="none" stroke="#05086e" d="M293,-228.729C293,-216.725 293,-202.362 293,-190.129"/>
<ellipse fill="none" stroke="#05086e" cx="293" cy="-232.884" rx="4" ry="4"/>
<polygon fill="#05086e" stroke="#05086e" points="293,-190.04 297.5,-180.04 293,-185.04 293,-180.04 293,-180.04 293,-180.04 293,-185.04 288.5,-180.04 293,-190.04 293,-190.04"/>
</g>
</g>
</svg>
