<?xml version="1.0" encoding="UTF-8" standalone="no"?>
<!DOCTYPE svg PUBLIC "-//W3C//DTD SVG 1.1//EN"
 "http://www.w3.org/Graphics/SVG/1.1/DTD/svg11.dtd">
<!-- Generated by graphviz version 2.38.0 (20140413.2041)
 -->
<!-- Title: models_diagram Pages: 1 -->
<svg width="1104pt" height="769pt"
 viewBox="0.00 0.00 1104.00 769.00" xmlns="http://www.w3.org/2000/svg" xmlns:xlink="http://www.w3.org/1999/xlink">
<g id="graph0" class="graph" transform="scale(1 1) rotate(0) translate(4 765)">
<title>models_diagram</title>
<polygon fill="none" stroke="none" points="-4,4 -4,-765 1100,-765 1100,4 -4,4"/>
<!-- _diagram_info -->
<g id="node1" class="node"><title>_diagram_info</title>
<text text-anchor="start" x="8" y="-739.6" font-family="Times,serif" font-size="13.00">Models diagram</text>
<text text-anchor="start" x="8" y="-725.6" font-family="Times,serif" font-size="13.00">Date: Mar 11 2017 &#45; 17:25</text>
<text text-anchor="start" x="8" y="-711.6" font-family="Times,serif" font-size="13.00">Migration version: 20170311202042</text>
<text text-anchor="start" x="8" y="-697.6" font-family="Times,serif" font-size="13.00">Generated by RailRoady 1.5.2</text>
<text text-anchor="start" x="8" y="-683.6" font-family="Times,serif" font-size="13.00">http://railroady.prestonlee.com</text>
</g>
<!-- Summary -->
<g id="node2" class="node"><title>Summary</title>
<path fill="none" stroke="black" d="M506.5,-496.5C506.5,-496.5 741.5,-496.5 741.5,-496.5 747.5,-496.5 753.5,-502.5 753.5,-508.5 753.5,-508.5 753.5,-620.5 753.5,-620.5 753.5,-626.5 747.5,-632.5 741.5,-632.5 741.5,-632.5 506.5,-632.5 506.5,-632.5 500.5,-632.5 494.5,-626.5 494.5,-620.5 494.5,-620.5 494.5,-508.5 494.5,-508.5 494.5,-502.5 500.5,-496.5 506.5,-496.5"/>
<text text-anchor="middle" x="624" y="-617.3" font-family="Times,serif" font-size="14.00">Summary</text>
<polyline fill="none" stroke="black" points="494.5,-609.5 753.5,-609.5 "/>
<text text-anchor="start" x="502.5" y="-594.3" font-family="Times,serif" font-size="14.00">id :integer</text>
<text text-anchor="start" x="502.5" y="-579.3" font-family="Times,serif" font-size="14.00">description :character varying</text>
<text text-anchor="start" x="502.5" y="-564.3" font-family="Times,serif" font-size="14.00">resolution :integer</text>
<text text-anchor="start" x="502.5" y="-549.3" font-family="Times,serif" font-size="14.00">starting_day :timestamp without time zone</text>
<text text-anchor="start" x="502.5" y="-534.3" font-family="Times,serif" font-size="14.00">finishing_day :timestamp without time zone</text>
<text text-anchor="start" x="502.5" y="-519.3" font-family="Times,serif" font-size="14.00">created_at :timestamp without time zone</text>
<text text-anchor="start" x="502.5" y="-504.3" font-family="Times,serif" font-size="14.00">updated_at :timestamp without time zone</text>
</g>
<!-- User -->
<g id="node7" class="node"><title>User</title>
<path fill="none" stroke="black" d="M251.5,-158.5C251.5,-158.5 540.5,-158.5 540.5,-158.5 546.5,-158.5 552.5,-164.5 552.5,-170.5 552.5,-170.5 552.5,-447.5 552.5,-447.5 552.5,-453.5 546.5,-459.5 540.5,-459.5 540.5,-459.5 251.5,-459.5 251.5,-459.5 245.5,-459.5 239.5,-453.5 239.5,-447.5 239.5,-447.5 239.5,-170.5 239.5,-170.5 239.5,-164.5 245.5,-158.5 251.5,-158.5"/>
<text text-anchor="middle" x="396" y="-444.3" font-family="Times,serif" font-size="14.00">User</text>
<polyline fill="none" stroke="black" points="239.5,-436.5 552.5,-436.5 "/>
<text text-anchor="start" x="247.5" y="-421.3" font-family="Times,serif" font-size="14.00">id :integer</text>
<text text-anchor="start" x="247.5" y="-406.3" font-family="Times,serif" font-size="14.00">email :character varying</text>
<text text-anchor="start" x="247.5" y="-391.3" font-family="Times,serif" font-size="14.00">encrypted_password :character varying</text>
<text text-anchor="start" x="247.5" y="-376.3" font-family="Times,serif" font-size="14.00">reset_password_token :character varying</text>
<text text-anchor="start" x="247.5" y="-361.3" font-family="Times,serif" font-size="14.00">reset_password_sent_at :timestamp without time zone</text>
<text text-anchor="start" x="247.5" y="-346.3" font-family="Times,serif" font-size="14.00">remember_created_at :timestamp without time zone</text>
<text text-anchor="start" x="247.5" y="-331.3" font-family="Times,serif" font-size="14.00">sign_in_count :integer</text>
<text text-anchor="start" x="247.5" y="-316.3" font-family="Times,serif" font-size="14.00">current_sign_in_at :timestamp without time zone</text>
<text text-anchor="start" x="247.5" y="-301.3" font-family="Times,serif" font-size="14.00">last_sign_in_at :timestamp without time zone</text>
<text text-anchor="start" x="247.5" y="-286.3" font-family="Times,serif" font-size="14.00">current_sign_in_ip :inet</text>
<text text-anchor="start" x="247.5" y="-271.3" font-family="Times,serif" font-size="14.00">last_sign_in_ip :inet</text>
<text text-anchor="start" x="247.5" y="-256.3" font-family="Times,serif" font-size="14.00">name :character varying</text>
<text text-anchor="start" x="247.5" y="-241.3" font-family="Times,serif" font-size="14.00">sure_name :character varying</text>
<text text-anchor="start" x="247.5" y="-226.3" font-family="Times,serif" font-size="14.00">last_name :character varying</text>
<text text-anchor="start" x="247.5" y="-211.3" font-family="Times,serif" font-size="14.00">rut :character varying</text>
<text text-anchor="start" x="247.5" y="-196.3" font-family="Times,serif" font-size="14.00">department_id :integer</text>
<text text-anchor="start" x="247.5" y="-181.3" font-family="Times,serif" font-size="14.00">created_at :timestamp without time zone</text>
<text text-anchor="start" x="247.5" y="-166.3" font-family="Times,serif" font-size="14.00">updated_at :timestamp without time zone</text>
</g>
<!-- Summary&#45;&gt;User -->
<g id="edge3" class="edge"><title>Summary&#45;&gt;User</title>
<path fill="none" stroke="#61cb93" d="M556.643,-488.609C550.563,-481.85 544.269,-474.852 537.85,-467.715"/>
<polygon fill="#61cb93" stroke="#61cb93" points="556.812,-488.797 560.153,-499.241 560.155,-492.515 563.499,-496.232 563.499,-496.232 563.499,-496.232 560.155,-492.515 566.845,-493.223 556.812,-488.797 556.812,-488.797"/>
<polygon fill="#61cb93" stroke="#61cb93" points="537.527,-467.356 534.186,-456.911 534.183,-463.638 530.84,-459.92 530.84,-459.92 530.84,-459.92 534.183,-463.638 527.494,-462.93 537.527,-467.356 537.527,-467.356"/>
</g>
<!-- Phase -->
<g id="node8" class="node"><title>Phase</title>
<path fill="none" stroke="black" d="M621,-256C621,-256 841,-256 841,-256 847,-256 853,-262 853,-268 853,-268 853,-350 853,-350 853,-356 847,-362 841,-362 841,-362 621,-362 621,-362 615,-362 609,-356 609,-350 609,-350 609,-268 609,-268 609,-262 615,-256 621,-256"/>
<text text-anchor="middle" x="731" y="-346.8" font-family="Times,serif" font-size="14.00">Phase</text>
<polyline fill="none" stroke="black" points="609,-339 853,-339 "/>
<text text-anchor="start" x="617" y="-323.8" font-family="Times,serif" font-size="14.00">id :integer</text>
<text text-anchor="start" x="617" y="-308.8" font-family="Times,serif" font-size="14.00">name :character varying</text>
<text text-anchor="start" x="617" y="-293.8" font-family="Times,serif" font-size="14.00">summary_id :integer</text>
<text text-anchor="start" x="617" y="-278.8" font-family="Times,serif" font-size="14.00">created_at :timestamp without time zone</text>
<text text-anchor="start" x="617" y="-263.8" font-family="Times,serif" font-size="14.00">updated_at :timestamp without time zone</text>
</g>
<!-- Summary&#45;&gt;Phase -->
<g id="edge1" class="edge"><title>Summary&#45;&gt;Phase</title>
<path fill="none" stroke="#cab402" d="M655.552,-488.747C671.303,-451.432 690.124,-406.843 705.027,-371.534"/>
<ellipse fill="none" stroke="#cab402" cx="653.949" cy="-492.547" rx="4.00002" ry="4.00002"/>
<polygon fill="#cab402" stroke="#cab402" points="705.035,-371.515 713.07,-364.052 706.979,-366.908 708.924,-362.302 708.924,-362.302 708.924,-362.302 706.979,-366.908 704.778,-360.552 705.035,-371.515 705.035,-371.515"/>
</g>
<!-- SummaryUser -->
<g id="node9" class="node"><title>SummaryUser</title>
<path fill="none" stroke="black" d="M322,-8C322,-8 542,-8 542,-8 548,-8 554,-14 554,-20 554,-20 554,-102 554,-102 554,-108 548,-114 542,-114 542,-114 322,-114 322,-114 316,-114 310,-108 310,-102 310,-102 310,-20 310,-20 310,-14 316,-8 322,-8"/>
<text text-anchor="middle" x="432" y="-98.8" font-family="Times,serif" font-size="14.00">SummaryUser</text>
<polyline fill="none" stroke="black" points="310,-91 554,-91 "/>
<text text-anchor="start" x="318" y="-75.8" font-family="Times,serif" font-size="14.00">id :integer</text>
<text text-anchor="start" x="318" y="-60.8" font-family="Times,serif" font-size="14.00">summary_id :integer</text>
<text text-anchor="start" x="318" y="-45.8" font-family="Times,serif" font-size="14.00">user_id :integer</text>
<text text-anchor="start" x="318" y="-30.8" font-family="Times,serif" font-size="14.00">created_at :timestamp without time zone</text>
<text text-anchor="start" x="318" y="-15.8" font-family="Times,serif" font-size="14.00">updated_at :timestamp without time zone</text>
</g>
<!-- Summary&#45;&gt;SummaryUser -->
<g id="edge2" class="edge"><title>Summary&#45;&gt;SummaryUser</title>
<path fill="none" stroke="#7cf9e2" d="M605.629,-488.379C603.581,-478.857 601.645,-469.221 600,-460 576.245,-326.821 630.382,-274.725 562,-158 553.896,-144.167 542.933,-131.727 530.792,-120.747"/>
<ellipse fill="none" stroke="#7cf9e2" cx="606.517" cy="-492.433" rx="4.00001" ry="4.00001"/>
<polygon fill="#7cf9e2" stroke="#7cf9e2" points="530.662,-120.635 526.035,-110.693 526.878,-117.367 523.094,-114.099 523.094,-114.099 523.094,-114.099 526.878,-117.367 520.153,-117.505 530.662,-120.635 530.662,-120.635"/>
</g>
<!-- Department -->
<g id="node3" class="node"><title>Department</title>
<path fill="none" stroke="black" d="M244,-511.5C244,-511.5 464,-511.5 464,-511.5 470,-511.5 476,-517.5 476,-523.5 476,-523.5 476,-605.5 476,-605.5 476,-611.5 470,-617.5 464,-617.5 464,-617.5 244,-617.5 244,-617.5 238,-617.5 232,-611.5 232,-605.5 232,-605.5 232,-523.5 232,-523.5 232,-517.5 238,-511.5 244,-511.5"/>
<text text-anchor="middle" x="354" y="-602.3" font-family="Times,serif" font-size="14.00">Department</text>
<polyline fill="none" stroke="black" points="232,-594.5 476,-594.5 "/>
<text text-anchor="start" x="240" y="-579.3" font-family="Times,serif" font-size="14.00">id :integer</text>
<text text-anchor="start" x="240" y="-564.3" font-family="Times,serif" font-size="14.00">name :character varying</text>
<text text-anchor="start" x="240" y="-549.3" font-family="Times,serif" font-size="14.00">establishment_id :integer</text>
<text text-anchor="start" x="240" y="-534.3" font-family="Times,serif" font-size="14.00">created_at :timestamp without time zone</text>
<text text-anchor="start" x="240" y="-519.3" font-family="Times,serif" font-size="14.00">updated_at :timestamp without time zone</text>
</g>
<!-- Department&#45;&gt;User -->
<g id="edge4" class="edge"><title>Department&#45;&gt;User</title>
<path fill="none" stroke="#689123" d="M364.002,-503.128C365.736,-492.664 367.609,-481.359 369.549,-469.651"/>
<ellipse fill="none" stroke="#689123" cx="363.305" cy="-507.336" rx="4.00001" ry="4.00001"/>
<polygon fill="#689123" stroke="#689123" points="369.558,-469.597 375.632,-460.467 370.375,-464.664 371.192,-459.732 371.192,-459.732 371.192,-459.732 370.375,-464.664 366.753,-458.996 369.558,-469.597 369.558,-469.597"/>
</g>
<!-- ApplicationRecord -->
<g id="node4" class="node"><title>ApplicationRecord</title>
<ellipse fill="none" stroke="black" cx="571" cy="-715" rx="77.1866" ry="18"/>
<text text-anchor="middle" x="571" y="-711.3" font-family="Times,serif" font-size="14.00">ApplicationRecord</text>
</g>
<!-- TimeLimit -->
<g id="node5" class="node"><title>TimeLimit</title>
<path fill="none" stroke="black" d="M602,-0.5C602,-0.5 822,-0.5 822,-0.5 828,-0.5 834,-6.5 834,-12.5 834,-12.5 834,-109.5 834,-109.5 834,-115.5 828,-121.5 822,-121.5 822,-121.5 602,-121.5 602,-121.5 596,-121.5 590,-115.5 590,-109.5 590,-109.5 590,-12.5 590,-12.5 590,-6.5 596,-0.5 602,-0.5"/>
<text text-anchor="middle" x="712" y="-106.3" font-family="Times,serif" font-size="14.00">TimeLimit</text>
<polyline fill="none" stroke="black" points="590,-98.5 834,-98.5 "/>
<text text-anchor="start" x="598" y="-83.3" font-family="Times,serif" font-size="14.00">id :integer</text>
<text text-anchor="start" x="598" y="-68.3" font-family="Times,serif" font-size="14.00">name :character varying</text>
<text text-anchor="start" x="598" y="-53.3" font-family="Times,serif" font-size="14.00">duration :integer</text>
<text text-anchor="start" x="598" y="-38.3" font-family="Times,serif" font-size="14.00">phase_id :integer</text>
<text text-anchor="start" x="598" y="-23.3" font-family="Times,serif" font-size="14.00">created_at :timestamp without time zone</text>
<text text-anchor="start" x="598" y="-8.3" font-family="Times,serif" font-size="14.00">updated_at :timestamp without time zone</text>
</g>
<!-- Document -->
<g id="node6" class="node"><title>Document</title>
<path fill="none" stroke="black" d="M864,-0.5C864,-0.5 1084,-0.5 1084,-0.5 1090,-0.5 1096,-6.5 1096,-12.5 1096,-12.5 1096,-109.5 1096,-109.5 1096,-115.5 1090,-121.5 1084,-121.5 1084,-121.5 864,-121.5 864,-121.5 858,-121.5 852,-115.5 852,-109.5 852,-109.5 852,-12.5 852,-12.5 852,-6.5 858,-0.5 864,-0.5"/>
<text text-anchor="middle" x="974" y="-106.3" font-family="Times,serif" font-size="14.00">Document</text>
<polyline fill="none" stroke="black" points="852,-98.5 1096,-98.5 "/>
<text text-anchor="start" x="860" y="-83.3" font-family="Times,serif" font-size="14.00">id :integer</text>
<text text-anchor="start" x="860" y="-68.3" font-family="Times,serif" font-size="14.00">name :character varying</text>
<text text-anchor="start" x="860" y="-53.3" font-family="Times,serif" font-size="14.00">link :character varying</text>
<text text-anchor="start" x="860" y="-38.3" font-family="Times,serif" font-size="14.00">phase_id :integer</text>
<text text-anchor="start" x="860" y="-23.3" font-family="Times,serif" font-size="14.00">created_at :timestamp without time zone</text>
<text text-anchor="start" x="860" y="-8.3" font-family="Times,serif" font-size="14.00">updated_at :timestamp without time zone</text>
</g>
<!-- User&#45;&gt;SummaryUser -->
<g id="edge5" class="edge"><title>User&#45;&gt;SummaryUser</title>
<path fill="none" stroke="#dc7ed2" d="M419.099,-150.157C420.412,-141.185 421.686,-132.482 422.888,-124.263"/>
<ellipse fill="none" stroke="#dc7ed2" cx="418.506" cy="-154.209" rx="4.00001" ry="4.00001"/>
<polygon fill="#dc7ed2" stroke="#dc7ed2" points="422.924,-124.02 428.824,-114.777 423.648,-119.073 424.372,-114.126 424.372,-114.126 424.372,-114.126 423.648,-119.073 419.919,-113.474 422.924,-124.02 422.924,-124.02"/>
</g>
<!-- Phase&#45;&gt;TimeLimit -->
<g id="edge7" class="edge"><title>Phase&#45;&gt;TimeLimit</title>
<path fill="none" stroke="#f7270b" d="M726.353,-247.834C723.649,-212.827 720.228,-168.537 717.405,-131.976"/>
<ellipse fill="none" stroke="#f7270b" cx="726.663" cy="-251.842" rx="4" ry="4"/>
<polygon fill="#f7270b" stroke="#f7270b" points="717.395,-131.854 721.112,-121.537 717.01,-126.869 716.625,-121.883 716.625,-121.883 716.625,-121.883 717.01,-126.869 712.139,-122.23 717.395,-131.854 717.395,-131.854"/>
</g>
<!-- Phase&#45;&gt;Document -->
<g id="edge6" class="edge"><title>Phase&#45;&gt;Document</title>
<path fill="none" stroke="#ca966d" d="M788.542,-249.747C824.246,-213.603 870.257,-167.024 907.517,-129.304"/>
<ellipse fill="none" stroke="#ca966d" cx="785.345" cy="-252.984" rx="4.00002" ry="4.00002"/>
<polygon fill="#ca966d" stroke="#ca966d" points="907.819,-128.998 918.048,-125.046 911.333,-125.441 914.847,-121.883 914.847,-121.883 914.847,-121.883 911.333,-125.441 911.645,-118.721 907.819,-128.998 907.819,-128.998"/>
</g>
<!-- Establishment -->
<g id="node10" class="node"><title>Establishment</title>
<path fill="none" stroke="black" d="M244,-669.5C244,-669.5 464,-669.5 464,-669.5 470,-669.5 476,-675.5 476,-681.5 476,-681.5 476,-748.5 476,-748.5 476,-754.5 470,-760.5 464,-760.5 464,-760.5 244,-760.5 244,-760.5 238,-760.5 232,-754.5 232,-748.5 232,-748.5 232,-681.5 232,-681.5 232,-675.5 238,-669.5 244,-669.5"/>
<text text-anchor="middle" x="354" y="-745.3" font-family="Times,serif" font-size="14.00">Establishment</text>
<polyline fill="none" stroke="black" points="232,-737.5 476,-737.5 "/>
<text text-anchor="start" x="240" y="-722.3" font-family="Times,serif" font-size="14.00">id :integer</text>
<text text-anchor="start" x="240" y="-707.3" font-family="Times,serif" font-size="14.00">name :character varying</text>
<text text-anchor="start" x="240" y="-692.3" font-family="Times,serif" font-size="14.00">created_at :timestamp without time zone</text>
<text text-anchor="start" x="240" y="-677.3" font-family="Times,serif" font-size="14.00">updated_at :timestamp without time zone</text>
</g>
<!-- Establishment&#45;&gt;Department -->
<g id="edge8" class="edge"><title>Establishment&#45;&gt;Department</title>
<path fill="none" stroke="#2aba7c" d="M354,-661.246C354,-650.39 354,-638.863 354,-627.709"/>
<ellipse fill="none" stroke="#2aba7c" cx="354" cy="-665.445" rx="4" ry="4"/>
<polygon fill="#2aba7c" stroke="#2aba7c" points="354,-627.599 358.5,-617.599 354,-622.599 354,-617.599 354,-617.599 354,-617.599 354,-622.599 349.5,-617.599 354,-627.599 354,-627.599"/>
</g>
</g>
</svg>
